<svg width="646" height="780" viewBox="0 0 646 780" fill="none" xmlns="http://www.w3.org/2000/svg">
<path opacity="0.24" d="M183.078 688.613C136.629 693.283 88.7544 698.419 47.881 721.264C42.4103 724.328 36.8557 727.942 33.8373 733.458C27.7797 744.553 34.6548 759.177 45.3238 765.855C55.9928 772.533 69.1562 773.294 81.7116 773.844C305.279 783.586 529.181 779.761 752.937 775.957C817.915 774.858 883.92 773.59 946.195 754.718C957.388 751.337 969.691 746.265 973.905 735.212C979.417 720.757 966.841 704.737 952.168 700.236C937.496 695.735 921.838 699.095 906.663 701.06C853.967 707.886 800.811 697.446 748.346 689.099C645.639 672.784 539.075 659.512 435.046 657.039C399.581 656.215 369.293 668.515 334.582 673.376C284.465 680.434 233.467 683.541 183.078 688.613Z" fill="#505F98"/>
<path d="M0.368692 255.326L116.198 19.4084L185.185 53.1898L69.355 289.108L0.368692 255.326Z" fill="white"/>
<path d="M27.2138 248.055L41.3273 219.22L87.7914 241.903L73.678 270.738L27.2138 248.055Z" fill="#505F98"/>
<path d="M27.2138 248.055L41.3273 219.22L87.7914 241.903L73.678 270.738L27.2138 248.055Z" fill="url(#paint0_linear)"/>
<path d="M41.3293 219.445L55.4428 190.61L101.907 213.293L87.7934 242.128L41.3293 219.445Z" fill="#505F98"/>
<path d="M41.3293 219.445L55.4428 190.61L101.907 213.293L87.7934 242.128L41.3293 219.445Z" fill="url(#paint1_linear)"/>
<path d="M55.426 190.826L69.5394 161.991L116.004 184.674L101.89 213.509L55.426 190.826Z" fill="#505F98"/>
<path d="M55.426 190.826L69.5394 161.991L116.004 184.674L101.89 213.509L55.426 190.826Z" fill="url(#paint2_linear)"/>
<path d="M69.5624 162.237L83.6759 133.402L130.14 156.085L116.027 184.92L69.5624 162.237Z" fill="#505F98"/>
<path d="M69.5624 162.237L83.6759 133.402L130.14 156.085L116.027 184.92L69.5624 162.237Z" fill="url(#paint3_linear)"/>
<path d="M83.6683 133.599L97.7818 104.764L144.246 127.447L130.132 156.282L83.6683 133.599Z" fill="#505F98"/>
<path d="M97.7838 105.01L111.897 76.1753L158.361 98.8577L144.248 127.693L97.7838 105.01Z" fill="#505F98"/>
<path d="M111.88 76.3912L125.994 47.5563L172.458 70.2387L158.345 99.0736L111.88 76.3912Z" fill="#505F98"/>
<path d="M96.1959 108.598L110.309 79.7633L156.773 102.446L142.66 131.281L96.1959 108.598Z" fill="url(#paint4_linear)"/>
<path d="M110.321 79.9696L124.434 51.1347L170.898 73.8171L156.785 102.652L110.321 79.9696Z" fill="url(#paint5_linear)"/>
<rect x="410.837" y="573" width="98.0679" height="82" fill="#505F98"/>
<rect x="410.837" y="573" width="98.0679" height="82" fill="url(#paint6_linear)"/>
<rect x="202.693" y="231" width="518.359" height="355" rx="9.37" fill="#505F98"/>
<path opacity="0.65" d="M704.04 260.438V554.562C704.057 559.443 702.133 564.129 698.693 567.588C695.253 571.047 690.579 572.994 685.703 573H234.039C229.165 572.989 224.494 571.04 221.055 567.582C217.617 564.125 215.691 559.441 215.702 554.562V260.438C215.691 255.559 217.617 250.875 221.055 247.418C224.494 243.96 229.165 242.011 234.039 242H685.703C690.579 242.006 695.253 243.953 698.693 247.412C702.133 250.871 704.057 255.557 704.04 260.438Z" fill="url(#paint7_linear)"/>
<rect x="365.806" y="645" width="206.143" height="21" fill="#505F98"/>
<rect x="410.837" y="633" width="98.0679" height="12" fill="url(#paint8_linear)"/>
<path fill-rule="evenodd" clip-rule="evenodd" d="M565.944 59.2411V79.7145L553.235 79.8193C551.999 89.3456 548.375 98.4104 542.697 106.181L553.551 117.351L538.672 131.6L527.986 120.578C521.397 125.062 513.962 128.17 506.129 129.714V143H485.559V130.029C476.774 128.76 468.402 125.497 461.089 120.494L452.153 129.316L437.589 114.647L446.462 105.993C440.876 98.2193 437.313 89.191 436.092 79.7145H421.845V59.2411H436.598C438.427 51.0933 442.024 43.4409 447.136 36.8187L438.896 28.3318L453.776 14.0821L462.206 22.8205C469.176 18.2143 477.1 15.2276 485.39 14.0821V0H505.961V14.3964C514.33 16.0545 522.238 19.493 529.145 24.476L539.683 14.1659L554.163 28.709L543.624 39.1867C547.756 45.2671 550.689 52.0725 552.266 59.2411H565.944ZM459.803 72.1496C459.78 91.211 475.303 106.682 494.474 106.705C503.686 106.733 512.529 103.113 519.051 96.6445C525.572 90.1762 529.235 81.3922 529.229 72.2334C529.253 53.1721 513.73 37.7011 494.558 37.678C475.387 37.6548 459.827 53.0883 459.803 72.1496Z" fill="#505F98"/>
<path fill-rule="evenodd" clip-rule="evenodd" d="M641.997 93.3542L641.079 105.396L633.566 104.938C632.44 110.475 629.935 115.641 626.283 119.958L632.147 127.021L622.798 134.729L617.039 127.792C612.984 130.13 608.498 131.625 603.85 132.188L603.245 140L591.204 139.104L591.788 131.479C586.703 130.344 581.947 128.056 577.89 124.792L572.255 129.583L564.388 120.396L569.96 115.688C567.031 110.876 565.346 105.414 565.056 99.7917L556.938 99.1667L557.836 87.1458L566.454 87.7917C567.878 83.0854 570.305 78.7428 573.57 75.0625L569.125 69.7083L578.474 62L583.003 67.5C587.274 65.095 592.029 63.6715 596.922 63.3333L597.548 55L609.589 55.8958L608.942 64.375C613.749 65.7138 618.207 68.0811 622.005 71.3125L628.621 65.7083L636.467 74.8958L629.789 80.5833C631.955 84.3387 633.373 88.4774 633.963 92.7708L641.997 93.3542ZM579.3 96.2429C578.445 107.436 586.837 117.203 598.049 118.062C603.443 118.487 608.784 116.747 612.889 113.228C616.994 109.708 619.524 104.7 619.918 99.3125C620.761 88.1186 612.358 78.3609 601.146 77.5136C589.934 76.6662 580.155 85.05 579.3 96.2429Z" fill="#505F98"/>
<path d="M704.04 260.513V267H215.702V260.513C215.691 255.614 217.617 250.912 221.056 247.44C224.495 243.968 229.166 242.011 234.041 242H685.701C690.578 242.006 695.252 243.961 698.692 247.434C702.133 250.907 704.057 255.613 704.04 260.513Z" fill="url(#paint9_linear)"/>
<rect x="225.709" y="299" width="47.0326" height="227" fill="url(#paint10_linear)"/>
<rect x="343.791" y="315" width="221.153" height="209" fill="url(#paint11_linear)"/>
<rect x="394.826" y="413" width="7.00485" height="9" fill="url(#paint12_linear)"/>
<rect x="394.826" y="371" width="7.00485" height="9" fill="url(#paint13_linear)"/>
<rect x="299.76" y="413" width="7.00485" height="9" fill="url(#paint14_linear)"/>
<rect x="299.76" y="371" width="7.00485" height="9" fill="url(#paint15_linear)"/>
<rect x="394.826" y="326" width="7.00485" height="9" fill="url(#paint16_linear)"/>
<rect x="300.761" y="326" width="7.00485" height="9" fill="url(#paint17_linear)"/>
<rect x="348.794" y="326" width="7.00485" height="9" fill="url(#paint18_linear)"/>
<rect x="348.794" y="413" width="7.00485" height="9" fill="url(#paint19_linear)"/>
<path fill-rule="evenodd" clip-rule="evenodd" d="M312.769 411H390.823V338H312.769V411ZM382.961 403.282H320.631V345.656H382.961V403.282Z" fill="#505F98"/>
<path fill-rule="evenodd" clip-rule="evenodd" d="M312.769 411H390.823V338H312.769V411ZM382.961 403.282H320.631V345.656H382.961V403.282Z" fill="url(#paint20_linear)"/>
<rect x="596.966" y="279" width="100.069" height="100" fill="url(#paint21_linear)"/>
<rect x="596.966" y="389" width="100.069" height="100" fill="url(#paint22_linear)"/>
<rect opacity="0.65" x="225.709" y="298" width="47.0326" height="13" fill="url(#paint23_linear)"/>
<path d="M22.6727 229.827L227.801 65.2927L275.914 125.118L70.7851 289.652L22.6727 229.827Z" fill="white"/>
<path d="M51.3964 234.455L76.4638 214.235L109.046 254.522L83.9788 274.742L51.3964 234.455Z" fill="#505F98"/>
<path d="M51.3964 234.455L76.4638 214.235L109.046 254.522L83.9788 274.742L51.3964 234.455Z" fill="url(#paint24_linear)"/>
<path d="M75.0143 214.689L100.046 194.56L132.481 234.79L107.449 254.919L75.0143 214.689Z" fill="#505F98"/>
<path d="M75.0143 214.689L100.046 194.56L132.481 234.79L107.449 254.919L75.0143 214.689Z" fill="url(#paint25_linear)"/>
<path d="M99.9582 194.761L124.99 174.633L157.425 214.863L132.393 234.991L99.9582 194.761Z" fill="#505F98"/>
<path d="M99.9582 194.761L124.99 174.633L157.425 214.863L132.393 234.991L99.9582 194.761Z" fill="url(#paint26_linear)"/>
<path d="M124.886 174.847L149.918 154.718L182.353 194.948L157.321 215.077L124.886 174.847Z" fill="#505F98"/>
<path d="M124.886 174.847L149.918 154.718L182.353 194.948L157.321 215.077L124.886 174.847Z" fill="url(#paint27_linear)"/>
<path d="M151.006 154.389L176.073 134.169L208.656 174.456L183.588 194.676L151.006 154.389Z" fill="#505F98"/>
<path d="M176.086 133.99L201.153 113.77L233.736 154.057L208.668 174.277L176.086 133.99Z" fill="#505F98"/>
<path d="M199.693 115.051L224.726 94.9227L257.16 135.153L232.128 155.282L199.693 115.051Z" fill="#505F98"/>
<path d="M229.712 158.218L208.613 175L176.675 134.782L197.774 118L229.712 158.218Z" fill="url(#paint28_linear)"/>
<path d="M196.736 117.648L221.768 97.519L254.203 137.749L229.171 157.878L196.736 117.648Z" fill="url(#paint29_linear)"/>
<path d="M145.653 239.15V362H124.639V239.15C124.639 234.61 127.457 230.57 131.657 229.089V216.825C131.657 214.712 133.333 213 135.4 213C137.468 213 139.144 214.712 139.144 216.825V229.297C143.063 230.935 145.631 234.823 145.653 239.15Z" fill="#505F98"/>
<path d="M145.653 239.15V362H124.639V239.15C124.639 234.61 127.457 230.57 131.657 229.089V216.825C131.657 214.712 133.333 213 135.4 213C137.468 213 139.144 214.712 139.144 216.825V229.297C143.063 230.935 145.631 234.823 145.653 239.15Z" fill="url(#paint30_linear)"/>
<rect x="111.63" y="317" width="50.0346" height="9" rx="2.245" fill="#505F98"/>
<path d="M136.335 399C127.763 399 120.636 386.185 120.636 377.634V321H151.658V377.634C151.658 386.185 144.887 399 136.335 399Z" fill="#505F98"/>
<rect x="111.63" y="317" width="50.0346" height="9" rx="2.245" fill="url(#paint31_linear)"/>
<path d="M136.335 399C127.763 399 120.636 386.366 120.636 377.937V326H151.658V377.937C151.658 386.366 144.887 399 136.335 399Z" fill="url(#paint32_linear)"/>
<path d="M336.428 459C335.754 455.436 335.329 450.39 336.622 450.043C339.351 449.275 336.428 459 336.428 459Z" fill="#28353D"/>
<path d="M479.687 654.507C479.201 667.102 469.438 713.388 469.121 726.004C469.121 730.202 470.241 736.647 468.889 740.698C466.1 749.284 456.211 748.108 454.922 743.049L454.436 740.53C449.85 716.012 457.225 688.198 454.436 656.186C452.766 636.643 444.99 598.963 439.898 598.711C437.214 598.711 375.956 727.851 370.631 735.807C368.011 739.817 360.637 739.187 357.066 742.42C353.495 745.652 386.818 644.515 400.785 591.07C404.042 580.039 406.166 568.709 407.124 557.252C407.504 550.64 405.37 548.415 411.477 546.463C415.703 545.119 421.556 545.497 426.078 545.182C431.002 544.804 476.792 544.72 476.792 547.953C476.348 565.502 480.87 625.412 479.687 654.507Z" fill="#606161"/>
<path d="M479.687 654.507C479.201 667.102 469.438 713.388 469.121 726.004C469.121 730.202 470.241 736.647 468.889 740.698C466.1 749.284 456.211 748.108 454.922 743.049L454.436 740.53C449.85 716.012 457.225 688.198 454.436 656.186C452.766 636.643 444.99 598.963 439.898 598.711C437.214 598.711 375.956 727.851 370.631 735.807C368.011 739.817 360.637 739.187 357.066 742.42C353.495 745.652 386.818 644.515 400.785 591.07C404.042 580.039 406.166 568.709 407.124 557.252C407.504 550.64 405.37 548.415 411.477 546.463C415.703 545.119 421.556 545.497 426.078 545.182C431.002 544.804 476.792 544.72 476.792 547.953C476.348 565.502 480.87 625.412 479.687 654.507Z" fill="url(#paint33_linear)"/>
<path d="M425.614 386.148C425.229 382.163 423.346 380 421.506 380C419.666 380 418.532 382.12 418.918 386.148C419.005 389.122 421.249 391.597 424.223 392C426.084 392 426.02 390.134 425.614 386.148Z" fill="#FFCD9C"/>
<path d="M458.008 386.159C458.258 382.166 460.094 380 461.993 380C463.893 380 465.124 382.124 464.832 386.159C464.805 389.173 462.56 391.687 459.614 392C457.736 392 457.715 390.152 458.008 386.159Z" fill="#FFCD9C"/>
<path d="M461.732 403.672C461.473 405.777 452.558 415 442.413 415C432.267 415 423.892 406.577 422.122 403.208C420.352 399.839 427.475 356.505 431.598 352.884C435.721 349.262 452.429 351.641 453.832 353.558C457.199 358.085 462.833 395.27 461.732 403.672Z" fill="#F4AD7D"/>
<path d="M457.538 370.977C456.159 371.639 450.743 357.842 449.607 355.525C448.471 353.208 448.654 350.829 450.033 350.167C451.413 349.505 453.441 350.871 454.577 353.167C455.713 355.463 458.897 370.336 457.538 370.977Z" fill="#FFCD9C"/>
<path d="M427.168 369.987C425.737 369.501 429.525 355.179 430.351 352.703C431.177 350.228 433.031 348.599 434.381 349.086C435.731 349.573 436.295 351.984 435.469 354.481C434.643 356.977 428.518 370.474 427.168 369.987Z" fill="#FFCD9C"/>
<path d="M432.845 402H454.608L457.87 422.622C446.014 429.005 439.101 428.301 429.85 421.214L432.845 402Z" fill="#F4AD7D"/>
<path d="M441.859 406.13C441.859 405.75 442.764 405.43 443.86 405.43C444.956 405.43 445.861 405.75 445.861 406.13C445.861 406.51 444.98 406.57 443.86 406.57C442.74 406.57 441.859 406.53 441.859 406.13Z" fill="#F4AD7D"/>
<path d="M462.892 396.808C463.716 391.894 465.06 356.708 461.764 352.051C458.469 347.394 438.741 344.381 435.749 345.108C429.05 346.731 430.221 351.517 430.221 351.517C428.23 351.547 426.28 352.084 424.562 353.076C422.264 354.615 417.43 376.79 421.289 393.56C423.023 401.102 429.852 407.66 441.646 407.981C456.171 408.365 461.894 402.896 462.892 396.808Z" fill="#606161"/>
<path d="M435.831 346.762C437.39 345.448 439.41 344.828 441.43 345.041C447.562 345.008 453.646 346.14 459.365 348.376C462.535 349.488 465.414 351.311 467.785 353.708C470.172 356.173 471.271 359.627 470.753 363.034C469.7 368.047 464.438 371.148 462.711 375.97C461.322 379.837 462.312 383.575 462.354 387.463C462.382 390.606 462.156 393.746 461.68 396.852C460.712 402.906 455.176 408.344 440.967 407.983C429.516 407.664 422.885 401.143 421.201 393.644C418.921 381.198 419.519 368.389 422.948 356.215C429.119 357.648 435.434 358.361 441.767 358.339C448.482 358.395 455.178 357.611 461.701 356.002C462.817 362.503 462.796 375.524 462.438 385.253" fill="#606161"/>
<path d="M400.702 418.954C397.268 419.241 393.96 420.384 391.077 422.28C386.139 426.171 385.764 433.43 385.847 439.748C385.678 448.501 386.285 457.252 387.66 465.897C389.139 473.826 391.827 481.441 394.035 489.202C397.516 501.831 399.344 514.862 399.473 527.966C399.473 535.162 399.348 543.07 403.827 548.697C408.723 554.806 417.39 555.998 425.182 556.438C436.245 557.086 447.349 557.17 458.412 556.709C465.829 556.375 473.725 555.643 479.6 551.082C484.287 547.442 495.267 424.288 486.746 421.171C478.225 418.054 469.058 417.259 460.016 416.506C439.745 414.791 420.661 413.431 400.702 418.954Z" fill="#505F98"/>
<path d="M464.521 674.291C463.434 688.255 460.843 739 460.843 739L454.238 738.77C449.702 714.39 456.997 686.732 454.238 654.899C452.586 635.465 444.894 597.996 439.857 597.746C441.362 585.221 449.827 587.1 449.827 587.1C455.984 596.294 461.294 606.026 465.692 616.178C470.729 629.37 465.629 660.263 464.521 674.291Z" fill="url(#paint34_linear)"/>
<path d="M340.164 740.024C339.133 740.786 338.35 741.83 337.912 743.025C337.678 744.009 337.773 745.04 338.183 745.965C339.35 748.326 341.56 750.019 344.168 750.55C346.744 751.04 349.382 751.131 351.987 750.818L360.328 750.262C362.45 750.212 364.555 749.873 366.583 749.255C368.613 748.627 370.289 747.198 371.212 745.308C371.704 743.916 371.895 742.438 371.775 740.969C371.775 734.164 369.357 728.634 361.808 730.299C353.902 731.765 346.474 735.102 340.164 740.024Z" fill="#505F98"/>
<path d="M478.702 743.063C479.65 743.759 480.369 744.709 480.77 745.797C480.984 746.682 480.9 747.611 480.53 748.446C479.467 750.584 477.438 752.114 475.047 752.579C472.69 753.035 470.273 753.121 467.888 752.834L460.316 752.325C458.389 752.284 456.478 751.985 454.636 751.435C452.779 750.864 451.25 749.566 450.415 747.853C449.967 746.595 449.789 745.26 449.893 743.932C449.893 737.785 452.069 732.72 459.01 734.288C466.206 735.619 472.963 738.63 478.702 743.063Z" fill="#505F98"/>
<path d="M487.89 421C487.89 421 520.606 440.163 530.432 464.389C540.257 488.614 498.252 547 498.252 547L489.263 537.814C489.263 537.814 511.188 493.759 507.799 482.74C504.409 471.721 491.13 461.452 491.13 461.452L487.89 421Z" fill="#505F98"/>
<path d="M394.826 458.859C394.826 458.859 349.337 479.24 330.853 469.238C312.368 459.237 331.398 409 331.398 409L343.777 413.202C343.777 413.202 333.433 438.815 345.267 442.618C357.101 446.421 392.56 421.438 392.56 421.438L394.826 458.859Z" fill="#505F98"/>
<path d="M480.466 545.976C479.158 546.826 478.097 547.968 477.381 549.297C476.951 550.425 476.797 551.629 476.928 552.819C476.849 555.709 478.163 558.479 480.509 560.367C482.158 561.25 484.005 561.76 485.903 561.857C487.066 562.048 488.256 562.048 489.419 561.857C490.606 561.646 491.597 560.888 492.051 559.844C492.206 559.183 492.271 558.507 492.245 557.831C492.396 554.51 494.899 551.793 496.97 549.076C497.47 548.551 497.793 547.9 497.897 547.204C497.885 546.434 497.597 545.69 497.078 545.091C495.675 543.199 492.202 539.717 489.419 540.018C486.636 540.32 482.624 544.326 480.466 545.976Z" fill="#F4AD7D"/>
<path d="M351.585 401.435C352.178 400.611 352.582 399.679 352.772 398.698C352.923 397.683 352.386 396.687 351.431 396.211C349.915 395.647 348.114 397.13 346.62 396.504C346.114 396.235 345.69 395.846 345.389 395.375C343.625 392.945 342.613 390.093 342.467 387.143C342.553 385.571 342.405 383.995 342.028 382.463C341.583 380.886 340 379.849 338.292 380.018C336.886 380.331 336.095 381.689 335.216 382.776C334.338 383.863 332.58 385.158 331.437 386.516C329.487 389.307 328.37 392.55 328.207 395.898C327.592 400.077 327.197 404.861 330.273 407.87C332.646 410.189 339.874 412.927 343.192 411.694C346.861 410.315 349.74 404.444 351.585 401.435Z" fill="#F4AD7D"/>
<defs>
<linearGradient id="paint0_linear" x1="151.402" y1="315.166" x2="216.156" y2="186.6" gradientUnits="userSpaceOnUse">
<stop stop-color="#010101" stop-opacity="0.01"/>
<stop offset="0.95" stop-color="#010101"/>
</linearGradient>
<linearGradient id="paint1_linear" x1="206.563" y1="311.365" x2="299.417" y2="129.775" gradientUnits="userSpaceOnUse">
<stop stop-color="#010101" stop-opacity="0.01"/>
<stop offset="0.95" stop-color="#010101"/>
</linearGradient>
<linearGradient id="paint2_linear" x1="326.545" y1="320.092" x2="463.899" y2="9.94814" gradientUnits="userSpaceOnUse">
<stop stop-color="#010101" stop-opacity="0.01"/>
<stop offset="0.95" stop-color="#010101"/>
</linearGradient>
<linearGradient id="paint3_linear" x1="454.379" y1="336.583" x2="659.309" y2="-110.822" gradientUnits="userSpaceOnUse">
<stop stop-color="#010101" stop-opacity="0.01"/>
<stop offset="0.36" stop-color="#010101" stop-opacity="0.36"/>
<stop offset="0.95" stop-color="#010101"/>
</linearGradient>
<linearGradient id="paint4_linear" x1="305.726" y1="231.564" x2="422.885" y2="-10.0312" gradientUnits="userSpaceOnUse">
<stop stop-color="white" stop-opacity="0.01"/>
<stop offset="0.07" stop-color="white" stop-opacity="0.22"/>
<stop offset="0.16" stop-color="white" stop-opacity="0.45"/>
<stop offset="0.25" stop-color="white" stop-opacity="0.65"/>
<stop offset="0.33" stop-color="white" stop-opacity="0.8"/>
<stop offset="0.4" stop-color="white" stop-opacity="0.91"/>
<stop offset="0.46" stop-color="white" stop-opacity="0.98"/>
<stop offset="0.51" stop-color="white"/>
</linearGradient>
<linearGradient id="paint5_linear" x1="227.65" y1="178.444" x2="291.846" y2="42.555" gradientUnits="userSpaceOnUse">
<stop stop-color="white" stop-opacity="0.01"/>
<stop offset="0.07" stop-color="white" stop-opacity="0.22"/>
<stop offset="0.16" stop-color="white" stop-opacity="0.45"/>
<stop offset="0.25" stop-color="white" stop-opacity="0.65"/>
<stop offset="0.33" stop-color="white" stop-opacity="0.8"/>
<stop offset="0.4" stop-color="white" stop-opacity="0.91"/>
<stop offset="0.46" stop-color="white" stop-opacity="0.98"/>
<stop offset="0.51" stop-color="white"/>
</linearGradient>
<linearGradient id="paint6_linear" x1="532.972" y1="641.322" x2="543.393" y2="514.584" gradientUnits="userSpaceOnUse">
<stop stop-color="#010101" stop-opacity="0.01"/>
<stop offset="0.95" stop-color="#010101"/>
</linearGradient>
<linearGradient id="paint7_linear" x1="131.259" y1="178.517" x2="128.544" y2="628.071" gradientUnits="userSpaceOnUse">
<stop stop-color="white" stop-opacity="0.01"/>
<stop offset="0.07" stop-color="white" stop-opacity="0.22"/>
<stop offset="0.16" stop-color="white" stop-opacity="0.45"/>
<stop offset="0.25" stop-color="white" stop-opacity="0.65"/>
<stop offset="0.33" stop-color="white" stop-opacity="0.8"/>
<stop offset="0.4" stop-color="white" stop-opacity="0.91"/>
<stop offset="0.46" stop-color="white" stop-opacity="0.98"/>
<stop offset="0.51" stop-color="white"/>
</linearGradient>
<linearGradient id="paint8_linear" x1="-122.395" y1="616.073" x2="-122.295" y2="758.306" gradientUnits="userSpaceOnUse">
<stop stop-color="#010101" stop-opacity="0.01"/>
<stop offset="0.95" stop-color="#010101"/>
</linearGradient>
<linearGradient id="paint9_linear" x1="1030.02" y1="361.966" x2="1064.2" y2="-45.145" gradientUnits="userSpaceOnUse">
<stop stop-color="white" stop-opacity="0.01"/>
<stop offset="0.07" stop-color="white" stop-opacity="0.22"/>
<stop offset="0.16" stop-color="white" stop-opacity="0.45"/>
<stop offset="0.25" stop-color="white" stop-opacity="0.65"/>
<stop offset="0.33" stop-color="white" stop-opacity="0.8"/>
<stop offset="0.4" stop-color="white" stop-opacity="0.91"/>
<stop offset="0.46" stop-color="white" stop-opacity="0.98"/>
<stop offset="0.51" stop-color="white"/>
</linearGradient>
<linearGradient id="paint10_linear" x1="203.138" y1="251.87" x2="341.145" y2="620.142" gradientUnits="userSpaceOnUse">
<stop stop-color="white" stop-opacity="0.01"/>
<stop offset="0.07" stop-color="white" stop-opacity="0.22"/>
<stop offset="0.16" stop-color="white" stop-opacity="0.45"/>
<stop offset="0.25" stop-color="white" stop-opacity="0.65"/>
<stop offset="0.33" stop-color="white" stop-opacity="0.8"/>
<stop offset="0.4" stop-color="white" stop-opacity="0.91"/>
<stop offset="0.46" stop-color="white" stop-opacity="0.98"/>
<stop offset="0.51" stop-color="white"/>
</linearGradient>
<linearGradient id="paint11_linear" x1="306.668" y1="274.99" x2="303.343" y2="557.698" gradientUnits="userSpaceOnUse">
<stop stop-color="white" stop-opacity="0.01"/>
<stop offset="0.07" stop-color="white" stop-opacity="0.22"/>
<stop offset="0.16" stop-color="white" stop-opacity="0.45"/>
<stop offset="0.25" stop-color="white" stop-opacity="0.65"/>
<stop offset="0.33" stop-color="white" stop-opacity="0.8"/>
<stop offset="0.4" stop-color="white" stop-opacity="0.91"/>
<stop offset="0.46" stop-color="white" stop-opacity="0.98"/>
<stop offset="0.51" stop-color="white"/>
</linearGradient>
<linearGradient id="paint12_linear" x1="622.503" y1="466.704" x2="641.69" y2="-111.215" gradientUnits="userSpaceOnUse">
<stop stop-color="#010101" stop-opacity="0.01"/>
<stop offset="0.95" stop-color="#010101"/>
</linearGradient>
<linearGradient id="paint13_linear" x1="621.651" y1="467.045" x2="640.838" y2="-110.875" gradientUnits="userSpaceOnUse">
<stop stop-color="#010101" stop-opacity="0.01"/>
<stop offset="0.95" stop-color="#010101"/>
</linearGradient>
<linearGradient id="paint14_linear" x1="527.471" y1="464.354" x2="546.688" y2="-113.565" gradientUnits="userSpaceOnUse">
<stop stop-color="#010101" stop-opacity="0.01"/>
<stop offset="0.95" stop-color="#010101"/>
</linearGradient>
<linearGradient id="paint15_linear" x1="526.62" y1="464.694" x2="545.836" y2="-113.224" gradientUnits="userSpaceOnUse">
<stop stop-color="#010101" stop-opacity="0.01"/>
<stop offset="0.95" stop-color="#010101"/>
</linearGradient>
<linearGradient id="paint16_linear" x1="620.712" y1="468.545" x2="639.928" y2="-109.373" gradientUnits="userSpaceOnUse">
<stop stop-color="#010101" stop-opacity="0.01"/>
<stop offset="0.95" stop-color="#010101"/>
</linearGradient>
<linearGradient id="paint17_linear" x1="526.682" y1="466.236" x2="545.869" y2="-111.683" gradientUnits="userSpaceOnUse">
<stop stop-color="#010101" stop-opacity="0.01"/>
<stop offset="0.95" stop-color="#010101"/>
</linearGradient>
<linearGradient id="paint18_linear" x1="574.672" y1="467.396" x2="593.888" y2="-110.501" gradientUnits="userSpaceOnUse">
<stop stop-color="#010101" stop-opacity="0.01"/>
<stop offset="0.95" stop-color="#010101"/>
</linearGradient>
<linearGradient id="paint19_linear" x1="576.488" y1="464.843" x2="595.704" y2="-113.075" gradientUnits="userSpaceOnUse">
<stop stop-color="#010101" stop-opacity="0.01"/>
<stop offset="0.95" stop-color="#010101"/>
</linearGradient>
<linearGradient id="paint20_linear" x1="231.41" y1="479.399" x2="463.642" y2="696.094" gradientUnits="userSpaceOnUse">
<stop stop-color="white" stop-opacity="0.01"/>
<stop offset="0.07" stop-color="white" stop-opacity="0.22"/>
<stop offset="0.16" stop-color="white" stop-opacity="0.45"/>
<stop offset="0.25" stop-color="white" stop-opacity="0.65"/>
<stop offset="0.33" stop-color="white" stop-opacity="0.8"/>
<stop offset="0.4" stop-color="white" stop-opacity="0.91"/>
<stop offset="0.46" stop-color="white" stop-opacity="0.98"/>
<stop offset="0.51" stop-color="white"/>
</linearGradient>
<linearGradient id="paint21_linear" x1="580.277" y1="259.864" x2="578.492" y2="395.026" gradientUnits="userSpaceOnUse">
<stop stop-color="white" stop-opacity="0.01"/>
<stop offset="0.07" stop-color="white" stop-opacity="0.22"/>
<stop offset="0.16" stop-color="white" stop-opacity="0.45"/>
<stop offset="0.25" stop-color="white" stop-opacity="0.65"/>
<stop offset="0.33" stop-color="white" stop-opacity="0.8"/>
<stop offset="0.4" stop-color="white" stop-opacity="0.91"/>
<stop offset="0.46" stop-color="white" stop-opacity="0.98"/>
<stop offset="0.51" stop-color="white"/>
</linearGradient>
<linearGradient id="paint22_linear" x1="580.277" y1="369.864" x2="578.492" y2="505.026" gradientUnits="userSpaceOnUse">
<stop stop-color="white" stop-opacity="0.01"/>
<stop offset="0.07" stop-color="white" stop-opacity="0.22"/>
<stop offset="0.16" stop-color="white" stop-opacity="0.45"/>
<stop offset="0.25" stop-color="white" stop-opacity="0.65"/>
<stop offset="0.33" stop-color="white" stop-opacity="0.8"/>
<stop offset="0.4" stop-color="white" stop-opacity="0.91"/>
<stop offset="0.46" stop-color="white" stop-opacity="0.98"/>
<stop offset="0.51" stop-color="white"/>
</linearGradient>
<linearGradient id="paint23_linear" x1="216.437" y1="295.281" x2="216.419" y2="313.481" gradientUnits="userSpaceOnUse">
<stop stop-color="white" stop-opacity="0.01"/>
<stop offset="0.07" stop-color="white" stop-opacity="0.22"/>
<stop offset="0.16" stop-color="white" stop-opacity="0.45"/>
<stop offset="0.25" stop-color="white" stop-opacity="0.65"/>
<stop offset="0.33" stop-color="white" stop-opacity="0.8"/>
<stop offset="0.4" stop-color="white" stop-opacity="0.91"/>
<stop offset="0.46" stop-color="white" stop-opacity="0.98"/>
<stop offset="0.51" stop-color="white"/>
</linearGradient>
<linearGradient id="paint24_linear" x1="135.736" y1="348.052" x2="249.167" y2="258.635" gradientUnits="userSpaceOnUse">
<stop stop-color="#010101" stop-opacity="0.01"/>
<stop offset="0.95" stop-color="#010101"/>
</linearGradient>
<linearGradient id="paint25_linear" x1="185.575" y1="367.988" x2="346.852" y2="242.867" gradientUnits="userSpaceOnUse">
<stop stop-color="#010101" stop-opacity="0.01"/>
<stop offset="0.95" stop-color="#010101"/>
</linearGradient>
<linearGradient id="paint26_linear" x1="290.519" y1="426.751" x2="546.684" y2="204.028" gradientUnits="userSpaceOnUse">
<stop stop-color="#010101" stop-opacity="0.01"/>
<stop offset="0.95" stop-color="#010101"/>
</linearGradient>
<linearGradient id="paint27_linear" x1="399.279" y1="495.865" x2="774.962" y2="177.45" gradientUnits="userSpaceOnUse">
<stop stop-color="#010101" stop-opacity="0.01"/>
<stop offset="0.36" stop-color="#010101" stop-opacity="0.36"/>
<stop offset="0.95" stop-color="#010101"/>
</linearGradient>
<linearGradient id="paint28_linear" x1="247.537" y1="258.751" x2="430.477" y2="127.322" gradientUnits="userSpaceOnUse">
<stop stop-color="white" stop-opacity="0.01"/>
<stop offset="0.07" stop-color="white" stop-opacity="0.22"/>
<stop offset="0.16" stop-color="white" stop-opacity="0.45"/>
<stop offset="0.25" stop-color="white" stop-opacity="0.65"/>
<stop offset="0.33" stop-color="white" stop-opacity="0.8"/>
<stop offset="0.4" stop-color="white" stop-opacity="0.91"/>
<stop offset="0.46" stop-color="white" stop-opacity="0.98"/>
<stop offset="0.51" stop-color="white"/>
</linearGradient>
<linearGradient id="paint29_linear" x1="261.151" y1="256.517" x2="377.009" y2="160.658" gradientUnits="userSpaceOnUse">
<stop stop-color="white" stop-opacity="0.01"/>
<stop offset="0.07" stop-color="white" stop-opacity="0.22"/>
<stop offset="0.16" stop-color="white" stop-opacity="0.45"/>
<stop offset="0.25" stop-color="white" stop-opacity="0.65"/>
<stop offset="0.33" stop-color="white" stop-opacity="0.8"/>
<stop offset="0.4" stop-color="white" stop-opacity="0.91"/>
<stop offset="0.46" stop-color="white" stop-opacity="0.98"/>
<stop offset="0.51" stop-color="white"/>
</linearGradient>
<linearGradient id="paint30_linear" x1="126.738" y1="422.745" x2="164.923" y2="422.767" gradientUnits="userSpaceOnUse">
<stop stop-color="white" stop-opacity="0.01"/>
<stop offset="0.07" stop-color="white" stop-opacity="0.22"/>
<stop offset="0.16" stop-color="white" stop-opacity="0.45"/>
<stop offset="0.25" stop-color="white" stop-opacity="0.65"/>
<stop offset="0.33" stop-color="white" stop-opacity="0.8"/>
<stop offset="0.4" stop-color="white" stop-opacity="0.91"/>
<stop offset="0.46" stop-color="white" stop-opacity="0.98"/>
<stop offset="0.51" stop-color="white"/>
</linearGradient>
<linearGradient id="paint31_linear" x1="53.4457" y1="325.2" x2="65.097" y2="363.932" gradientUnits="userSpaceOnUse">
<stop stop-color="#010101" stop-opacity="0.01"/>
<stop offset="0.95" stop-color="#010101"/>
</linearGradient>
<linearGradient id="paint32_linear" x1="78.2437" y1="473.933" x2="179.146" y2="475.976" gradientUnits="userSpaceOnUse">
<stop stop-color="#010101" stop-opacity="0.01"/>
<stop offset="0.95" stop-color="#010101"/>
</linearGradient>
<linearGradient id="paint33_linear" x1="481.015" y1="631.512" x2="384.922" y2="466.732" gradientUnits="userSpaceOnUse">
<stop stop-color="#010101" stop-opacity="0.01"/>
<stop offset="0.95" stop-color="#010101"/>
</linearGradient>
<linearGradient id="paint34_linear" x1="482.037" y1="169.892" x2="309.151" y2="174.761" gradientUnits="userSpaceOnUse">
<stop stop-color="#010101" stop-opacity="0.01"/>
<stop offset="0.95" stop-color="#010101"/>
</linearGradient>
</defs>
</svg>
