<svg width="60" height="60" viewBox="0 0 60 60" fill="none" xmlns="http://www.w3.org/2000/svg">
<g opacity="0.15">
<path d="M43.8512 45.2437C43.5511 44.4937 42.8196 44.0062 41.9944 44.0062H15.9988V17.9999C15.9988 16.8937 15.0985 15.9937 14.0106 15.9937C13.4855 15.9937 12.9603 16.1999 12.5852 16.5749L0.581432 28.5749C0.206314 28.9499 0 29.4562 0 29.9999V57.9936C0 59.0999 0.900281 59.9999 2.00688 59.9999H30.0094C30.5345 59.9999 31.041 59.7937 31.4348 59.4187L43.4386 47.4187C43.9825 46.8374 44.1513 45.9749 43.8512 45.2437Z" fill="#823434"/>
<path d="M58.0119 0H5.98314C4.87654 0 3.97626 0.9 3.97626 1.9875C3.97626 2.5125 4.18257 3.0375 4.55769 3.4125L16.5614 15.4125C16.9366 15.7875 17.443 15.9938 17.9869 15.9938H44.0013V42C44.0013 42.525 44.2076 43.0312 44.5827 43.425L56.5865 55.425C57.3742 56.2125 58.6308 56.2125 59.4186 55.425C59.7937 55.05 60 54.5438 60 54V2.00625C60 0.9 59.1185 0 58.0119 0Z" fill="#823434"/>
</g>
</svg>
