<svg width="77" height="25" viewBox="0 0 77 25" fill="none" xmlns="http://www.w3.org/2000/svg">
<path d="M17.1318 17.4087L17.2716 17.3344V17.176V8.488V8.22441H17.008H10.504H10.2404V8.488V11.224V11.4876H10.504H13.7204V15.0749C12.5988 15.6595 11.2246 15.8564 10.024 15.8564C8.27262 15.8564 6.88154 15.1847 5.92546 14.1034C4.96633 13.0187 4.43159 11.5058 4.43159 9.808C4.43159 6.5524 6.68217 3.99958 10 3.99958C11.5307 3.99958 13.1644 4.53459 14.2576 5.5823L14.4449 5.7618L14.6274 5.57738L16.8594 3.32138L17.053 3.12566L16.849 2.94073C14.9787 1.24495 12.3803 0.736415 10 0.736415C7.26263 0.736415 4.94277 1.67046 3.30662 3.30662C1.67046 4.94277 0.736415 7.26263 0.736415 10C0.736415 12.6923 1.69042 14.9763 3.33558 16.5873C4.98023 18.1978 7.29897 19.1196 10 19.1196C12.4123 19.1196 14.8321 18.632 17.1318 17.4087ZM22.4713 7.87193V6.904V6.64041H22.2077H19.3277H19.0641V6.904V18.424V18.6876H19.3277H22.2077H22.4713V18.424V12.424C22.4713 11.705 22.685 11.003 23.1356 10.485C23.5808 9.97311 24.2788 9.61558 25.3037 9.61558C25.7036 9.61558 26.0869 9.6816 26.6292 9.82305L26.9593 9.90917V9.568V6.784V6.5782L26.7596 6.52828C26.7114 6.51622 26.6652 6.50435 26.6203 6.49282C26.3164 6.4147 26.074 6.35241 25.6637 6.35241C24.3595 6.35241 23.2148 6.90835 22.4713 7.87193ZM27.4433 8.27977L27.2612 8.46613L27.4454 8.65038L28.9574 10.1624L29.1352 10.3401L29.3211 10.171C30.069 9.49112 31.0871 9.03959 32.2158 9.03959C32.9671 9.03959 33.5635 9.22766 33.9661 9.54661C34.3617 9.85998 34.5922 10.3162 34.5922 10.912V10.9844H33.9678C31.4818 10.9844 29.6546 11.3205 28.4414 12.0251C27.83 12.3801 27.3719 12.8304 27.0683 13.3781C26.7651 13.925 26.6242 14.5543 26.6242 15.256C26.6242 16.3954 27.1193 17.3342 27.9326 17.9821C28.741 18.6263 29.8524 18.9756 31.0878 18.9756C32.4599 18.9756 33.7113 18.5328 34.5922 17.5356V18.424V18.6876H34.8558H37.4478H37.7114V18.424V11.536C37.7114 10.1565 37.4628 8.85183 36.6668 7.89086C35.8625 6.91979 34.5447 6.35241 32.5278 6.35241C30.2058 6.35241 28.5283 7.16957 27.4433 8.27977ZM37.9864 6.64041H37.5941L37.7424 7.00364L42.4464 18.5236L42.5134 18.6876H42.6904H45.7624H45.9419L46.0077 18.5206L50.5437 7.00057L50.6855 6.64041H50.2984H47.3464H47.1653L47.1004 6.80953L44.2273 14.2928L41.3768 6.81016L41.3121 6.64041H41.1304H37.9864ZM51.0397 6.64041H50.7762V6.904V18.424V18.6876H51.0397H53.9198H54.1833V18.424V6.904V6.64041H53.9198H51.0397ZM57.2581 3.30441H56.9945V3.568V6.64041H54.8821H54.6185V6.904V9.352V9.61558H54.8821H56.9945V14.752C56.9945 16.2243 57.2598 17.3015 57.9351 18.0037C58.6132 18.7088 59.646 18.9756 61.0261 18.9756C61.3639 18.9756 61.809 18.9445 62.2412 18.8797C62.668 18.8156 63.1076 18.7151 63.4198 18.5658L63.5697 18.4941V18.328V15.904V15.3556L63.1415 15.6982C63.0655 15.7589 62.8991 15.8375 62.6435 15.9C62.3954 15.9606 62.0865 16.0004 61.7461 16.0004C61.2243 16.0004 60.9095 15.8679 60.7171 15.649C60.5181 15.4225 60.4017 15.0499 60.4017 14.464V9.61558H63.3061H63.5697V9.352V8.93849L67.629 18.5224L67.1668 19.6669C67.1666 19.6673 67.1665 19.6677 67.1663 19.668C66.8971 20.3166 66.7132 20.712 66.438 20.9619C66.1811 21.1952 65.8093 21.3284 65.0823 21.3284C64.6185 21.3284 64.1463 21.2176 63.7094 21.0567L63.4022 20.9435L63.3572 21.2677L62.9972 23.8597L62.9651 24.0906L63.1903 24.1507C63.9328 24.3487 64.6997 24.4476 65.4662 24.4476C66.9534 24.4476 67.9394 24.0799 68.6711 23.3679C69.3863 22.6719 69.8296 21.6713 70.2955 20.4886L70.2958 20.4877L75.5518 6.9997L75.6919 6.64041H75.3063H72.3063H72.1211L72.0583 6.81464L69.39 14.2191L66.4068 6.8056L66.3403 6.64041H66.1622H63.5697H63.3061H62.9942H62.5964H60.4017V3.568V3.30441H60.1381H57.2581ZM30.0314 15.04C30.0314 14.7941 30.1068 14.5894 30.2513 14.4134C30.3994 14.2329 30.6299 14.0712 30.9547 13.9365C31.6088 13.6654 32.5875 13.5276 33.8478 13.5276H34.4242V13.984C34.4242 14.6612 34.2144 15.2287 33.8025 15.6276C33.3902 16.0269 32.7431 16.2884 31.8078 16.2884C31.3064 16.2884 30.8519 16.1652 30.531 15.947C30.2179 15.7341 30.0314 15.433 30.0314 15.04ZM52.4557 1.00041C51.2875 1.00041 50.3682 1.90122 50.3682 2.992C50.3682 4.08278 51.2875 4.98358 52.4557 4.98358C53.6047 4.98358 54.5913 4.19662 54.5913 2.992C54.5913 1.84207 53.6361 1.00041 52.4557 1.00041Z" fill="#222222" stroke="black" stroke-width="0.52717"/>
</svg>
