<svg width="52" height="70" viewBox="0 0 52 70" fill="none" xmlns="http://www.w3.org/2000/svg">
<g opacity="0.15">
<path d="M51.9932 42.542C51.0658 28.7786 43.9156 15.3302 30.6985 2.48581C29.3162 1.13967 28.1288 0.0222078 28.0595 0.0006351C27.9901 -0.0209376 28.1201 0.50975 28.3455 1.18282C28.9305 2.9302 29.4028 5.30751 29.5892 7.43889C30.1265 14.7046 29.1428 23.1567 19.6135 28.3342C18.1661 29.0677 18.3005 28.921 18.0145 28.6664C17.6375 28.3342 16.7751 27.1908 16.2508 26.1251C15.4144 24.4295 15.0461 22.9453 14.7947 20.2358L14.63 18.5057L12.9747 20.4429C10.9856 22.7771 9.25654 25.0638 7.58816 27.5835C-1.5858 41.4331 -2.49149 54.0704 5.14408 61.7762C11.1459 67.6353 18.8942 70.2327 30.1092 68.5111C43.2526 66.7249 52.2835 58.3159 51.9932 42.542Z" fill="black"/>
</g>
</svg>
