<svg width="21" height="20" viewBox="0 0 21 20" fill="none" xmlns="http://www.w3.org/2000/svg">
<path fill-rule="evenodd" clip-rule="evenodd" d="M11.3846 0.6838C11.5592 1.20774 11.276 1.77406 10.7521 1.94871C10.3838 2.07149 9.91595 2.52175 9.44323 3.40812C8.99514 4.24828 8.64457 5.28834 8.40602 6.24256C8.15081 7.26338 7.92994 8.34322 8.02008 9.13722C8.0633 9.51787 8.16645 9.71128 8.25782 9.80609C8.32714 9.87801 8.48997 10 8.93587 10C9.37971 10 9.74142 9.78432 10.0809 9.22868C10.4393 8.64198 10.6874 7.79175 10.8415 6.84013C10.9928 5.90609 11.0408 4.95937 11.0497 4.2377C11.0541 3.87906 11.0488 3.58098 11.0426 3.37419C11.0394 3.2709 11.036 3.19066 11.0335 3.13735L11.0305 3.07815L11.0297 3.06466L11.0296 3.0624L11.0296 3.06211L11.0296 3.06206C10.9953 2.511 11.4142 2.03642 11.9652 2.00197C12.5165 1.96752 12.9912 2.38644 13.0257 2.93765L12.0281 3C13.0257 2.93765 13.0257 2.9379 13.0257 2.93818L13.0258 2.93889L13.0259 2.94086L13.0262 2.94699L13.0274 2.9678L13.0287 2.99089L13.0312 3.04239C13.0343 3.10627 13.0381 3.19791 13.0416 3.31336C13.0487 3.54407 13.0544 3.87099 13.0496 4.26235C13.04 5.04069 12.9885 6.09397 12.8158 7.15993C12.646 8.2083 12.3456 9.35807 11.7876 10.2714C11.2106 11.2157 10.2879 12 8.93587 12C8.0859 12 7.35079 11.747 6.81776 11.194C6.30678 10.6638 6.10317 9.98218 6.03285 9.36283C5.89593 8.15684 6.22093 6.73668 6.46573 5.75749C6.72718 4.71172 7.12661 3.50177 7.67852 2.46694C8.20579 1.4783 8.98798 0.428564 10.1196 0.0513442C10.6436 -0.123304 11.2099 0.159855 11.3846 0.6838ZM6.62115 0.216353C6.98636 0.505833 7.1032 1.00921 6.90284 1.42996L6.90272 1.43021L6.90214 1.43142L6.89965 1.43666L6.88938 1.45831L6.84851 1.54487C6.81253 1.62127 6.7595 1.73433 6.69185 1.87976C6.55654 2.17068 6.36285 2.59098 6.13026 3.10656C5.66477 4.13839 5.04492 5.54865 4.42582 7.06542C3.8057 8.58471 3.19171 10.1979 2.73435 11.6385C2.26594 13.114 1.99998 14.2951 1.99998 15C1.99998 15.5523 1.55226 16 0.999976 16C0.447691 16 -2.44381e-05 15.5523 -2.44381e-05 15C-2.44381e-05 13.955 0.359011 12.511 0.828101 11.0334C1.30824 9.52094 1.94425 7.85284 2.57413 6.30963C2.84982 5.63418 3.12537 4.98017 3.38764 4.37052L1.62467 5.7809C1.19341 6.1259 0.564116 6.05598 0.219107 5.62472C-0.125902 5.19346 -0.0559822 4.56417 0.375281 4.21916L5.37528 0.219158C5.73918 -0.071964 6.25594 -0.0731275 6.62115 0.216353ZM17.7521 1.94871C18.276 1.77406 18.5592 1.20774 18.3846 0.6838C18.2099 0.159855 17.6436 -0.123304 17.1196 0.0513442C15.988 0.428564 15.2058 1.4783 14.6785 2.46694C14.1266 3.50177 13.7272 4.71172 13.4657 5.75749C13.2209 6.73668 12.8959 8.15684 13.0329 9.36283C13.1032 9.98218 13.3068 10.6638 13.8178 11.194C14.3508 11.747 15.0859 12 15.9359 12C17.2879 12 18.2106 11.2157 18.7876 10.2714C19.3456 9.35807 19.646 8.2083 19.8158 7.15993C19.9885 6.09397 20.04 5.04069 20.0496 4.26235C20.0544 3.87099 20.0487 3.54407 20.0416 3.31336C20.0381 3.19791 20.0343 3.10627 20.0312 3.04239L20.0285 2.98705L20.0274 2.9678L20.0262 2.94699L20.0259 2.94086L20.0258 2.93889L20.0257 2.93818C20.0257 2.9379 20.0257 2.93765 19.0276 3.00003L20.0257 2.93765C19.9912 2.38644 19.5165 1.96752 18.9653 2.00197C18.4142 2.03642 17.9953 2.511 18.0296 3.06206V3.06211L18.0296 3.0624L18.0297 3.06466L18.0305 3.07815L18.0335 3.13735C18.036 3.19066 18.0394 3.2709 18.0426 3.37419C18.0488 3.58098 18.0541 3.87906 18.0497 4.2377C18.0408 4.95937 17.9928 5.90609 17.8415 6.84013C17.6874 7.79175 17.4393 8.64198 17.0809 9.22868C16.7414 9.78432 16.3797 10 15.9359 10C15.49 10 15.3271 9.87801 15.2578 9.80609C15.1665 9.71128 15.0633 9.51787 15.0201 9.13722C14.9299 8.34322 15.1508 7.26338 15.406 6.24256C15.6446 5.28834 15.9951 4.24828 16.4432 3.40812C16.916 2.52175 17.3838 2.07149 17.7521 1.94871ZM5.37137 15.9285L5.37723 15.9262L5.41134 15.9132C5.44334 15.9011 5.49365 15.8824 5.5613 15.8583C5.69665 15.8103 5.9012 15.7408 6.16719 15.6595C6.69957 15.4968 7.47581 15.2876 8.43426 15.1079C10.3557 14.7476 12.9828 14.511 15.8356 14.9864C16.3803 15.0772 16.8956 14.7092 16.9864 14.1644C17.0772 13.6197 16.7091 13.1044 16.1644 13.0136C13.0171 12.4891 10.1443 12.7524 8.06569 13.1422C7.02415 13.3374 6.17538 13.5657 5.58276 13.7468C5.28626 13.8374 5.0533 13.9164 4.89177 13.9737C4.81099 14.0024 4.74802 14.0258 4.70384 14.0425L4.66866 14.0559L4.65177 14.0624L4.63652 14.0684L4.63163 14.0703L4.62988 14.071L4.62917 14.0713C4.62887 14.0714 4.62858 14.0716 4.99992 14.9999L4.62858 14.0716C4.1158 14.2767 3.86638 14.8586 4.0715 15.3714C4.27655 15.884 4.85822 16.1335 5.37089 15.9287L5.37137 15.9285ZM17.105 16.0056C12.7192 15.5422 8.85564 16.0583 6.09035 16.6883C4.70625 17.0036 3.59264 17.3485 2.82046 17.6166C2.43422 17.7506 2.13296 17.8657 1.9255 17.9484C1.82176 17.9897 1.74143 18.023 1.68562 18.0466C1.65772 18.0584 1.63593 18.0678 1.62041 18.0746L1.60185 18.0827L1.59612 18.0852L1.59415 18.0861L1.59338 18.0864C1.59307 18.0866 1.59277 18.0867 1.99998 19L1.59277 18.0867C1.08835 18.3116 0.861746 18.9028 1.08664 19.4072C1.31146 19.9115 1.90239 20.1381 2.40672 19.9136L2.40718 19.9134L2.40759 19.9132L2.41735 19.9089C2.42695 19.9048 2.4427 19.898 2.46448 19.8888C2.50803 19.8703 2.57565 19.8423 2.66625 19.8061C2.84746 19.7339 3.12042 19.6295 3.47637 19.5059C4.18856 19.2587 5.2312 18.9352 6.5346 18.6383C9.14432 18.0438 12.7808 17.5599 16.8949 17.9945C17.4441 18.0525 17.9364 17.6543 17.9944 17.1051C18.0525 16.5559 17.6543 16.0636 17.105 16.0056ZM2.40672 19.9136C2.40694 19.9135 2.40718 19.9134 1.99998 19L6.09035 16.6883L2.40672 19.9136Z" fill="#1434E1"/>
</svg>
