<svg width="56" height="68" viewBox="0 0 56 68" fill="none" xmlns="http://www.w3.org/2000/svg">
<g opacity="1">
<path d="M2.88995 24.9968C-2.90326 34.9727 0.779592 50.1117 7.18594 59.2911C10.3837 63.8803 13.6213 67.9998 18.0556 67.9998C18.1392 67.9998 18.223 67.9982 18.3088 67.9949C20.3922 67.9124 21.8978 67.2758 23.3534 66.6607C24.9877 65.9696 26.6779 65.255 29.3291 65.255C31.8513 65.255 33.4608 65.9464 35.0174 66.6148C36.5514 67.2734 38.1316 67.9547 40.4664 67.9113C45.4613 67.819 48.5281 63.3738 51.2339 59.4523C54.0573 55.3578 55.4737 51.3823 55.9516 49.8632L55.9709 49.8027C56.0619 49.5327 55.9334 49.238 55.6725 49.1192C55.6653 49.1158 55.6388 49.1049 55.6314 49.1018C54.7518 48.7448 47.0361 45.3482 46.955 36.0904C46.8797 28.5689 52.7432 24.5859 53.9192 23.8639L53.974 23.8301C54.1014 23.7487 54.1901 23.6196 54.2202 23.472C54.2503 23.3246 54.2189 23.1712 54.1335 23.0473C50.0862 17.1698 43.883 16.2841 41.3855 16.1775C41.0231 16.1416 40.649 16.1235 40.2734 16.1235C37.3401 16.1235 34.5301 17.2229 32.2725 18.1062C30.7142 18.716 29.3682 19.2426 28.4398 19.2426C27.3967 19.2426 26.043 18.7095 24.4755 18.0924C22.3793 17.2668 20.0033 16.3313 17.4881 16.3313C17.4281 16.3313 17.369 16.332 17.3109 16.3331C11.4626 16.4185 5.93652 19.7387 2.88995 24.9968Z" fill="black"/>
<path d="M41.3907 0.000428386C37.8491 0.143563 33.6008 2.30686 31.0615 5.25828C28.9035 7.73906 26.7954 11.8752 27.3508 16.0444C27.3856 16.3053 27.5995 16.5066 27.864 16.5269C28.103 16.5454 28.347 16.5548 28.5901 16.555C32.053 16.555 35.7887 14.6539 38.3398 11.5928C41.0249 8.36042 42.3826 4.2122 41.9719 0.496494C41.9395 0.20532 41.6814 -0.0109421 41.3907 0.000428386Z" fill="black"/>
</g>
</svg>
